<svg width="35" height="35" viewBox="0 0 35 35" fill="none" xmlns="http://www.w3.org/2000/svg">
<path d="M11.1447 9.81056C10.479 9.69403 9.84367 9.4755 9.26015 9.1624C8.97478 9.00575 8.58507 9.0354 8.36654 9.19321L6.98249 9.90205C5.69724 8.89707 4.97677 7.87117 4.47664 6.33339L5.58078 5.29956C5.85417 5.1079 5.99707 4.78303 5.95282 4.447C5.85627 3.7884 5.86621 3.11684 5.98279 2.45091C6.06704 1.96984 5.74417 1.50994 5.26313 1.42573L3.26647 1.07619C2.78542 0.991977 2.32553 1.31484 2.24131 1.79589C1.27601 7.30994 4.97662 12.5812 10.4907 13.5465C10.9717 13.6307 11.4316 13.3078 11.5158 12.8268L11.8644 10.8357C11.9486 10.3547 11.6257 9.89476 11.1447 9.81056Z" fill="white"/>
</svg>
